# xmcd
# Track frame offsets:
# 150
# 13477
# 31669
# 44000
# 60066
# 77316
# 94988
# 112238
# 132709
#
# Disc length: 1918 seconds
# Revision: 0
# Processed by: cddbd v1.5.2PL0 Copyright (c) Steve Scherf et al.
# Submitted via: VisiTrax 2.11.3.279 - For more info visit www.synapsa.com
#
DISCID=74077c09
DTITLE=Costanzo. Vince - Unfinished Business
DYEAR=2016
DGENRE=Country
TTITLE0=Wolverton Mountain
TTITLE1=Dust On Mother's Bible
TTITLE2=Lonesome Me
TTITLE3=Life Turned Her That Way
TTITLE4=Lucille
TTITLE5=Wedding Bells
TTITLE6=One Day At A Time
TTITLE7=You Win Again
TTITLE8=Honky Tonk Man
EXTD=Indie Produced CD by Caboolture, Qld. based artist.
EXTT0=
EXTT1=
EXTT2=
EXTT3=
EXTT4=
EXTT5=
EXTT6=
EXTT7=
EXTT8=
PLAYORDER=
